<svg width="19" height="14" viewBox="0 0 19 14" fill="none" xmlns="http://www.w3.org/2000/svg">
<path d="M2.32812 0C1.225 0 0.328125 0.896875 0.328125 2V3H18.3281V2C18.3281 0.896875 17.4312 0 
16.3281 0H2.32812ZM18.3281 6H0.328125V12C0.328125 13.1031 1.225 14 2.32812 14H16.3281C17.4312 14 
18.3281 13.1031 18.3281 12V6ZM3.82812 10H5.82812C6.10313 10 6.32812 10.225 6.32812 10.5C6.32812 
10.775 6.10313 11 5.82812 11H3.82812C3.55312 11 3.32812 10.775 3.32812 10.5C3.32812 10.225 3.55312 
10 3.82812 10ZM7.32812 10.5C7.32812 10.225 7.55312 10 7.82812 10H11.8281C12.1031 10 12.3281 10.225
12.3281 10.5C12.3281 10.775 12.1031 11 11.8281 11H7.82812C7.55312 11 7.32812 10.775 7.32812 10.5Z" fill="#DC2626"/>
</svg>
