<svg width="15" height="14" viewBox="0 0 15 14" fill="none" xmlns="http://www.w3.org/2000/svg">
<path d="M13.2547 0.593164C12.6559 -0.00566407 11.6879 -0.00566407 11.0891 0.593164L10.266 1.41348L12.943 
4.09043L13.766 3.26738C14.3648 2.66855 14.3648 1.70059 13.766 1.10176L13.2547 0.593164ZM5.07344 
6.60879C4.90664 6.77559 4.77812 6.98066 4.7043 7.20762L3.89492 9.63574C3.81562 9.8709 3.87852 
10.1307 4.05352 10.3084C4.22852 10.4861 4.48828 10.5463 4.72617 10.467L7.1543 9.65762C7.37852 
9.58379 7.58359 9.45527 7.75312 9.28848L12.3277 4.71113L9.64805 2.03145L5.07344 6.60879ZM2.98437 
1.7498C1.53516 1.7498 0.359375 2.92559 0.359375 4.3748V11.3748C0.359375 12.824 1.53516 13.9998 
2.98437 13.9998H9.98437C11.4336 13.9998 12.6094 12.824 12.6094 11.3748V8.7498C12.6094 8.26582 
12.2184 7.8748 11.7344 7.8748C11.2504 7.8748 10.8594 8.26582 10.8594 8.7498V11.3748C10.8594 
11.8588 10.4684 12.2498 9.98437 12.2498H2.98437C2.50039 12.2498 2.10937 11.8588 2.10937 
11.3748V4.3748C2.10937 3.89082 2.50039 3.4998 2.98437 3.4998H5.60937C6.09336 3.4998 6.48437 
3.10879 6.48437 2.6248C6.48437 2.14082 6.09336 1.7498 5.60937 1.7498H2.98437Z" fill="#9CA3AF"/>
</svg>
