<svg width="15" height="15" viewBox="0 0 15 15" fill="none" xmlns="http://www.w3.org/2000/svg">
<path d="M9.60938 10.125C12.2672 10.125 14.4219 7.97031 14.4219 5.3125C14.4219 2.65469 
12.2672 0.5 9.60938 0.5C6.95156 0.5 4.79688 2.65469 4.79688 5.3125C4.79688 5.82383 
4.87617 6.31875 5.02383 6.78086L0.613281 11.1914C0.490234 11.3145 0.421875 11.4812 
0.421875 11.6562V13.8438C0.421875 14.2074 0.714453 14.5 1.07812 14.5H3.26562C3.6293 
14.5 3.92188 14.2074 3.92188 13.8438V12.75H5.01562C5.3793 12.75 5.67188 12.4574 5.67188 
12.0938V11H6.76562C6.94063 11 7.10742 10.9316 7.23047 10.8086L8.14102 9.89805C8.60312 
10.0457 9.09805 10.125 9.60938 10.125ZM10.7031 3.125C10.9932 3.125 11.2714 3.24023 11.4765 
3.44535C11.6816 3.65047 11.7969 3.92867 11.7969 4.21875C11.7969 4.50883 11.6816 4.78703 
11.4765 4.99215C11.2714 5.19727 10.9932 5.3125 10.7031 5.3125C10.413 5.3125 10.1348 5.19727
9.92973 4.99215C9.72461 4.78703 9.60938 4.50883 9.60938 4.21875C9.60938 3.92867 9.72461 3.65047 
9.92973 3.44535C10.1348 3.24023 10.413 3.125 10.7031 3.125Z" fill="#2563EB"/>
</svg>
