<svg width="19" height="16" viewBox="0 0 19 16" fill="none" xmlns="http://www.w3.org/2000/svg">
<path d="M13.4844 3V3.02187C13.3188 3.00937 13.1531 3 12.9844 3H8.98438C8.46875 3 7.96875 3.06562 
7.49062 3.1875C7.4875 3.125 7.48438 3.0625 7.48438 3C7.48438 1.34375 8.82812 0 10.4844 0C12.1406 
0 13.4844 1.34375 13.4844 3ZM12.9844 4C13.0938 4 13.2031 4.00313 13.3094 4.00938C13.4406 4.01875 
13.5719 4.03125 13.7031 4.05C14.2531 3.40938 15.0719 3 15.9844 3H16.3438C16.6687 3 16.9062 3.30625 
16.8281 3.62188L16.3969 5.34688C16.8906 5.80938 17.2938 6.37187 17.5688 7H17.9844C18.5375 7 18.9844 
7.44688 18.9844 8V11C18.9844 11.5531 18.5375 12 17.9844 12H16.9844C16.7 12.3781 16.3625 12.7156 
15.9844 13V15C15.9844 15.5531 15.5375 16 14.9844 16H13.9844C13.4312 16 12.9844 15.5531 12.9844 
15V14H8.98438V15C8.98438 15.5531 8.5375 16 7.98438 16H6.98438C6.43125 16 5.98438 15.5531 5.98438 
15V13C4.89375 12.1812 4.15 10.9281 4.00938 9.5H3.10938C1.93438 9.5 0.984375 8.55 0.984375 7.375C0.984375 
6.2 1.93438 5.25 3.10938 5.25H3.23438C3.65 5.25 3.98438 5.58437 3.98438 6C3.98438 6.41563 3.65 6.75 
3.23438 6.75H3.10938C2.76562 6.75 2.48438 7.03125 2.48438 7.375C2.48438 7.71875 2.76562 8 3.10938 
8H4.08437C4.4625 6.13125 5.8875 4.64062 7.71875 4.1625C8.12187 4.05625 8.54688 4 8.98438 
4H12.9844ZM14.9844 8.25C14.9844 8.05109 14.9054 7.86032 14.7647 7.71967C14.6241 7.57902 14.4333 
7.5 14.2344 7.5C14.0355 7.5 13.8447 7.57902 13.704 7.71967C13.5634 7.86032 13.4844 8.05109 13.4844 
8.25C13.4844 8.44891 13.5634 8.63968 13.704 8.78033C13.8447 8.92098 14.0355 9 14.2344 9C14.4333 9 14.6241 
8.92098 14.7647 8.78033C14.9054 8.63968 14.9844 8.44891 14.9844 8.25Z" fill="#059669"/>
</svg>
