<svg width="12" height="12" viewBox="0 0 12 12" fill="none" xmlns="http://www.w3.org/2000/svg">
<path d="M7.09375 0.9375C7.09375 0.453516 6.70273 0.0625 6.21875 0.0625C5.73477 0.0625 5.34375 
0.453516 5.34375 0.9375V4.875H1.40625C0.922266 4.875 0.53125 5.26602 0.53125 5.75C0.53125 6.23398 
0.922266 6.625 1.40625 6.625H5.34375V10.5625C5.34375 11.0465 5.73477 11.4375 6.21875 11.4375C6.70273 
11.4375 7.09375 11.0465 7.09375 10.5625V6.625H11.0312C11.5152 6.625 11.9062 6.23398 11.9062 5.75C11.9062 
5.26602 11.5152 4.875 11.0312 4.875H7.09375V0.9375Z" fill="white"/>
</svg>
