<svg width="4" height="12" viewBox="0 0 4 12" fill="none" xmlns="http://www.w3.org/2000/svg">
<path d="M1.71875 8.84375C1.31264 8.84375 0.923158 9.00508 0.635993 9.29224C0.348828 9.57941 
0.1875 9.96889 0.1875 10.375C0.1875 10.7811 0.348828 11.1706 0.635993 11.4578C0.923158 11.7449 
1.31264 11.9062 1.71875 11.9062C2.12486 11.9063 2.51434 11.7449 2.80151 11.4578C3.08867 11.1706 
3.25 10.7811 3.25 10.375C3.25 9.96889 3.08867 9.57941 2.80151 9.29224C2.51434 9.00508 2.12486 
8.84375 1.71875 8.84375ZM1.71875 4.46875C1.31264 4.46875 0.923158 4.63008 0.635993 4.91724C0.348828 
5.20441 0.1875 5.59389 0.1875 6C0.1875 6.40611 0.348828 6.79559 0.635993 7.08276C0.923158 7.36992 
1.31264 7.53125 1.71875 7.53125C2.12486 7.53125 2.51434 7.36992 2.80151 7.08276C3.08867 6.79559 3.25 
6.40611 3.25 6C3.25 5.59389 3.08867 5.20441 2.80151 4.91724C2.51434 4.63008 2.12486 4.46875 1.71875 
4.46875ZM3.25 1.625C3.25 1.21889 3.08867 0.829408 2.80151 0.542243C2.51434 0.255078 2.12486 0.09375 
1.71875 0.09375C1.31264 0.09375 0.923158 0.255078 0.635993 0.542243C0.348828 0.829408 0.1875 1.21889 
0.1875 1.625C0.1875 2.03111 0.348828 2.42059 0.635993 2.70776C0.923158 2.99492 1.31264 3.15625 1.71875 
3.15625C2.12486 3.15625 2.51434 2.99492 2.80151 2.70776C3.08867 2.42059 3.25 2.03111 3.25 1.625Z" fill="#9CA3AF"/>
</svg>
